PathFileType	4	(X/Y/Z)	C:/Users/opensim2020/Desktop/walking_exp_matlab/subject03_walking06_straight_04.trc																																																																																																																																		
DataRate	CameraRate	NumFrames	NumMarkers	Units	OrigDataRate	OrigDataStartFrame	OrigNumFrames																																																																																																																														
100	100	9	44	mm	100	2798	278																																																																																																																														
Frame#	Time	LFHD			RFHD			LBHD			RBHD			C7			T10			CLAV			STRN			RBAK			LSHO			LUPA			LELB			LFRM			LWRA			LWRB			LFIN			RSHO			RUPA			RELB			RFRM			RWRA			RWRB			RFIN			LASI			RASI			LPSI			RPSI			LTHI			LKNE			LTIB			LANK			LHEE			LTOE			RTHI			RKNE			RTIB			RANK			RHEE			RTOE			*39			*40			*41			*42			*43		
		X1	Y1	Z1	X2	Y2	Z2	X3	Y3	Z3	X4	Y4	Z4	X5	Y5	Z5	X6	Y6	Z6	X7	Y7	Z7	X8	Y8	Z8	X9	Y9	Z9	X10	Y10	Z10	X11	Y11	Z11	X12	Y12	Z12	X13	Y13	Z13	X14	Y14	Z14	X15	Y15	Z15	X16	Y16	Z16	X17	Y17	Z17	X18	Y18	Z18	X19	Y19	Z19	X20	Y20	Z20	X21	Y21	Z21	X22	Y22	Z22	X23	Y23	Z23	X24	Y24	Z24	X25	Y25	Z25	X26	Y26	Z26	X27	Y27	Z27	X28	Y28	Z28	X29	Y29	Z29	X30	Y30	Z30	X31	Y31	Z31	X32	Y32	Z32	X33	Y33	Z33	X34	Y34	Z34	X35	Y35	Z35	X36	Y36	Z36	X37	Y37	Z37	X38	Y38	Z38	X39	Y39	Z39	X40	Y40	Z40	X41	Y41	Z41	X42	Y42	Z42	X43	Y43	Z43	X44	Y44	Z44
																																																																																																																																					
70	0.69	-642.62134	1605.90881	916.44885	-649.29816	1613.4231	1049.11023	-775.65216	1578.46545	914.65497	-776.97534	1584.89063	1045.68921	-823.12311	1416.91455	977.69232	-859.33411	1101.61487	987.52655	-701.9519	1338.93701	978.52448	-657.33118	1174.94128	977.70221	-875.66193	1241.51819	1081.24963	-750.82959	1372.48462	821.38251	-781.39105	1171.62317	760.84039	-791.02911	1047.57727	757.54803	-787.87775	917.11273	763.38324	-793.58087	798.78809	798.30292	-812.09381	806.19489	744.96234	-819.54877	721.31183	760.36554	-745.42291	1366.34546	1137.72607	-707.97284	1151.81311	1215.56604	-665.48962	1048.5896	1229.77808	-601.08569	928.37671	1227.07947	-539.00378	854.62476	1186.69641	-564.3269	835.2569	1230.01819	-513.26831	783.04846	1217.56018	-689.07568	939.70251	874.79602	-697.6817	932.39886	1110.28772	-853.7511	964.16943	918.58441	-855.21906	969.13745	1068.54028	-710.50739	639.44104	833.50732	-671.38593	466.50092	875.71741	-685.63361	272.12381	874.49377	-656.89752	63.88603	913.66925	-691.40845	29.65971	952.17694	-501.45752	32.68826	929.23059	-794.68787	641.03674	1153.21558	-813.84198	461.54269	1128.45886	-951.039	319.57578	1126.63867	-1085.48547	151.5666	1077.64099	-1133.00867	151.53273	1021.38586	-1000.95734	31.4277	1062.25708	-718.78455	1676.24207	965.04834	NaN	NaN	NaN	NaN	NaN	NaN	NaN	NaN	NaN	NaN	NaN	NaN
71	0.7	-632.8736	1606.99011	916.04297	-639.58862	1614.59351	1048.6377	-765.89954	1579.98035	914.15485	-767.37488	1586.5127	1045.15759	-813.62122	1418.13135	976.82703	-849.28839	1103.10974	986.58032	-692.31842	1340.51379	978.22064	-647.284	1176.66663	977.6604	-865.92072	1243.05823	1080.68469	-740.40057	1374.36621	821.09558	-769.56494	1173.65686	759.96252	-778.65826	1049.62708	756.84973	-774.6947	919.26404	762.76721	-779.92651	800.76282	797.72717	-798.01624	808.13855	744.1167	-806.29999	723.01685	759.85321	-736.86157	1368.49976	1136.97534	-700.73505	1153.37244	1214.2019	-659.638	1049.74988	1228.06726	-596.50543	928.86163	1225.87097	-534.91608	854.19604	1185.90417	-560.86066	835.25854	1229.10107	-510.62097	781.76215	1216.63428	-679.15466	941.55304	873.53741	-687.41852	934.23187	1108.95508	-843.19232	966.03894	917.73358	-844.79968	970.81049	1067.547	-704.20764	639.98053	832.39807	-666.67157	466.7099	874.85571	-682.54913	272.6579	873.81641	-656.57074	64.01782	913.72858	-691.36639	29.6553	951.99622	-501.22705	32.34367	929.19421	-780.24518	640.99518	1153.12817	-795.72021	460.91443	1129.34143	-935.86993	322.1167	1127.02747	-1074.34216	157.84619	1077.63098	-1120.70361	161.07895	1020.55438	-999.68713	31.97749	1061.23608	-707.47028	1683.59094	959.84924	NaN	NaN	NaN	NaN	NaN	NaN	NaN	NaN	NaN	NaN	NaN	NaN
72	0.71	-623.26013	1607.75159	915.65369	-630.07672	1615.47412	1048.22742	-756.38464	1581.10571	913.67566	-757.91333	1587.81348	1044.70569	-804.20514	1419.14526	975.95294	-839.30536	1104.33569	985.28455	-682.75958	1341.72705	977.97174	-637.32788	1178.08667	977.59644	-856.27014	1244.29028	1080.1344	-729.97308	1375.97791	820.85455	-757.97565	1175.51746	759.05634	-766.37695	1051.45227	755.98279	-761.36578	921.16022	761.99658	-765.90326	802.52814	797.07733	-783.54102	809.75482	743.26624	-792.42523	724.4328	759.24261	-728.40857	1370.28284	1136.34375	-693.76038	1154.60474	1213.04834	-654.1189	1050.49927	1226.70911	-592.16962	929.03406	1224.88208	-530.99261	853.55145	1185.29797	-557.49683	834.95624	1228.37183	-508.26346	780.13568	1215.80408	-669.24915	942.73596	872.30396	-677.41602	935.87494	1107.75549	-832.71149	967.49084	916.54614	-834.7381	972.23889	1066.29932	-698.1662	640.05835	831.47723	-661.9613	466.48825	874.20416	-679.52753	272.94333	873.63696	-656.20673	63.92496	914.18335	-691.26813	29.76016	952.07214	-500.86453	31.99566	929.36969	-765.66791	640.66846	1152.99573	-777.14337	460.14948	1130.21753	-919.85278	324.43234	1126.97583	-1061.71521	163.33444	1078.04248	-1107.42932	170.58937	1020.42029	-997.82794	33.00467	1060.96155	-698.79395	1678.66565	964.08679	NaN	NaN	NaN	NaN	NaN	NaN	NaN	NaN	NaN	NaN	NaN	NaN
73	0.72	-613.78345	1608.28235	915.30353	-620.74329	1616.18811	1047.92163	-746.88745	1581.86169	913.22888	-748.55719	1588.71265	1044.21313	-794.81036	1419.78711	975.1687	-829.32501	1105.08191	983.75787	-673.28333	1342.64368	977.73669	-627.48254	1179.22644	977.47974	-846.74396	1245.10376	1079.44727	-719.66852	1377.28894	820.65424	-746.25525	1177.07861	758.04395	-753.98907	1052.9668	754.92181	-747.83459	922.74927	761.09961	-751.42334	804.00525	796.21411	-768.74463	811.0744	742.32068	-777.96051	725.56805	758.51184	-719.82159	1371.35754	1135.68164	-686.98785	1155.42224	1212.17627	-648.82324	1050.81458	1225.74438	-588.00952	928.76965	1224.13269	-527.12292	852.50879	1184.90894	-554.25659	834.26129	1227.77478	-506.02689	778.0675	1215.05542	-659.43463	943.27966	871.15521	-667.83337	937.21564	1106.78247	-822.37744	968.52124	915.18286	-825.04669	973.30341	1064.9718	-692.07532	640.1438	830.60535	-657.17377	466.19205	873.57452	-676.85376	273.10806	873.54437	-655.93372	63.98166	914.48523	-691.14783	29.81845	952.35089	-500.59305	31.57134	929.53784	-751.14673	640.08441	1152.7207	-758.53412	459.23431	1130.63879	-902.89905	326.25546	1127.08777	-1048.58789	168.73335	1078.56946	-1093.97913	179.97415	1021.0871	-993.30841	35.73586	1060.60742	-688.46997	1685.44861	958.58746	NaN	NaN	NaN	NaN	NaN	NaN	NaN	NaN	NaN	NaN	NaN	NaN
74	0.73	-604.35852	1608.73401	915.0722	-611.47241	1616.78015	1047.68665	-737.50531	1582.36768	912.87439	-739.3551	1589.3031	1043.81116	-785.51459	1420.22925	974.54498	-819.53064	1105.47852	982.20697	-663.8501	1343.29871	977.63641	-617.74237	1179.97266	977.41626	-837.45642	1245.44202	1078.55469	-709.32373	1378.23376	820.48944	-734.5116	1178.27698	757.03583	-741.68933	1054.13623	753.73047	-734.14697	923.95581	760.10596	-736.69812	805.23328	795.32849	-753.69495	812.01337	741.41895	-762.95923	726.39899	757.71722	-711.48291	1372.32471	1135.22717	-680.42847	1155.7428	1211.51917	-643.68091	1050.65161	1225.07019	-583.95026	927.9986	1223.60803	-523.33521	851.04865	1184.80225	-551.13483	833.09863	1227.39136	-504.01334	775.68634	1214.53833	-649.76654	943.2901	870.10199	-658.49603	938.12152	1105.98071	-812.36804	969.12903	913.72815	-815.69159	973.78381	1063.55579	-686.01196	640.00177	829.68854	-652.42511	465.84631	873.11932	-674.40527	273.23547	873.40222	-655.76654	64.1558	914.77313	-691.06256	29.91405	952.57288	-500.24295	31.36658	929.80963	-736.87982	639.34308	1152.36682	-739.90497	458.38379	1130.7821	-885.30719	327.52283	1127.52966	-1035.24792	174.52919	1078.82898	-1080.44067	188.26352	1021.50476	-985.10468	40.33978	1061.24976	-679.93896	1683.20959	959.18469	NaN	NaN	NaN	NaN	NaN	NaN	NaN	NaN	NaN	NaN	NaN	NaN
75	0.74	-595.04773	1609.09033	914.90686	-602.38116	1617.26563	1047.4408	-728.18811	1582.61597	912.4823	-730.23688	1589.71045	1043.49133	-776.3493	1420.53149	973.8432	-809.7746	1105.51355	980.61371	-654.50342	1343.72241	977.6181	-608.2442	1180.44055	977.35272	-828.41528	1245.33972	1077.39124	-698.99115	1378.85608	820.32568	-722.99799	1179.04419	755.88806	-729.46527	1054.82581	752.35931	-720.35901	924.81207	759.04614	-720.90369	806.77856	793.64783	-738.44196	812.58514	740.37921	-747.36011	726.84204	756.88458	-703.04993	1372.61951	1134.89526	-673.98633	1155.53137	1211.06042	-638.52203	1049.92957	1224.60901	-579.93762	926.69531	1223.30762	-519.60571	849.10168	1184.90051	-548.20276	831.38446	1227.13037	-501.97549	772.80182	1214.13928	-640.08038	942.86499	869.20966	-649.3678	938.52832	1105.40454	-802.64124	969.40149	912.32166	-806.646	973.69415	1062.20435	-679.34198	640.38416	828.78094	-647.77228	465.67764	872.54785	-671.94891	273.4241	873.19525	-655.6283	64.37455	914.75366	-690.99493	29.99516	952.66577	-500.03104	31.03097	929.91718	-722.91284	638.48145	1151.92188	-721.29425	457.52383	1130.77234	-867.4433	328.55688	1128.18079	-1021.86853	180.92245	1078.2843	-1066.65247	194.72594	1020.61359	-973.07214	45.87169	1063.32996	-671.69476	1682.62671	954.32281	NaN	NaN	NaN	NaN	NaN	NaN	NaN	NaN	NaN	NaN	NaN	NaN
76	0.75	-585.74316	1609.41003	914.83716	-593.34033	1617.72705	1047.32544	-718.84985	1582.76575	912.16406	-721.18463	1590.01013	1043.13879	-767.19922	1420.68909	973.1745	-800.1189	1105.34595	979.17755	-645.29993	1343.99097	977.63855	-598.92975	1180.66199	977.3689	-819.62994	1244.90466	1075.91797	-688.76666	1379.12659	820.07306	-711.33307	1179.48694	754.83282	-716.97772	1055.17798	750.92499	-706.44354	925.29016	757.87781	-706.33484	806.64703	793.42493	-722.93652	812.84399	739.33215	-731.14996	727.01587	755.97241	-694.67072	1372.5238	1134.73596	-667.57465	1154.86414	1210.78296	-633.21338	1048.78003	1224.36536	-575.98047	924.82556	1223.12573	-515.98273	846.60376	1185.14417	-545.41077	829.14496	1226.95862	-500.16516	769.64221	1213.94507	-630.48096	942.38373	868.49927	-640.49445	938.49951	1104.95813	-793.40607	969.46832	911.04767	-797.92725	973.12732	1060.99585	-672.21362	640.95227	827.66193	-643.17877	465.68555	871.72064	-669.41815	273.60315	872.79889	-655.52649	64.49829	914.90839	-690.97833	30.04499	952.71124	-499.83292	30.84134	929.99988	-709.26721	637.62585	1151.39893	-702.57074	456.90823	1130.78162	-849.466	330.01776	1128.11609	-1007.34027	186.855	1077.61841	-1051.87292	199.80569	1019.22919	-958.6983	51.40734	1065.64514	-661.76935	1680.53894	963.26495	NaN	NaN	NaN	NaN	NaN	NaN	NaN	NaN	NaN	NaN	NaN	NaN
77	0.76	-576.50043	1609.72986	914.77551	-584.40076	1618.15698	1047.2605	-709.54913	1582.9314	911.8819	-712.16705	1590.23755	1042.82922	-758.10992	1420.87939	972.5683	-790.73438	1105.09692	977.86786	-636.23779	1344.13892	977.72418	-589.83636	1180.78821	977.34595	-811.19373	1244.39551	1074.18762	-678.52905	1379.1239	819.89917	-699.49622	1179.73047	753.41156	-704.50494	1055.1853	749.36096	-692.40692	925.45624	756.6723	-690.77991	807.02734	792.41663	-707.27124	812.74274	738.27081	-714.40607	726.87122	755.08728	-686.39948	1372.08264	1134.72888	-661.17755	1153.77441	1210.51099	-627.80701	1047.27527	1224.21228	-572.09863	922.57306	1223.05237	-512.66211	843.76855	1185.54553	-542.80847	826.47675	1226.86267	-498.52255	766.28302	1213.92871	-620.98364	942.10773	867.94531	-631.73712	938.17432	1104.59058	-784.48328	969.42822	909.98737	-789.30121	972.36511	1059.77905	-665.10138	641.46051	826.65729	-638.26904	465.8588	870.74133	-666.84808	273.86624	872.22845	-655.44116	64.63935	914.9397	-690.95325	30.09735	952.68811	-499.56281	30.61995	930.08588	-695.92719	637.17938	1150.90723	-683.80505	456.75751	1130.89136	-831.55072	332.15845	1127.21423	-991.60864	191.74988	1077.23303	-1035.87024	203.70738	1018.22754	-942.66907	56.12215	1068.13818	-652.64508	1680.77734	961.98071	NaN	NaN	NaN	NaN	NaN	NaN	NaN	NaN	NaN	NaN	NaN	NaN
78	0.77	-567.23981	1609.96643	914.82513	-575.43512	1618.50537	1047.26477	-700.33014	1583.01843	911.64929	-703.20929	1590.43005	1042.57434	-749.00562	1421.09546	971.93719	-781.51947	1104.9176	976.81525	-627.33417	1344.22339	977.82666	-580.87189	1180.77747	977.44055	-802.99109	1243.93835	1072.37842	-668.34369	1378.91711	819.74426	-687.53271	1179.33704	752.75439	-691.71936	1054.93518	747.8913	-678.14453	925.42914	755.50446	-675.01233	807.1897	791.32416	-691.42151	812.55804	737.21118	-696.76886	726.64917	754.02283	-678.16589	1371.33447	1134.90308	-654.69769	1152.41931	1210.25305	-622.23602	1045.52405	1224.05151	-568.27948	920.04327	1223.02588	-509.45331	840.54034	1186.05273	-540.35956	823.47913	1226.84253	-496.89252	762.68408	1214.12903	-611.61127	942.1405	867.39557	-623.09375	937.70593	1104.27844	-775.96466	969.41711	909.16632	-780.80017	971.25299	1058.86804	-657.9043	641.97205	826.06891	-633.14764	466.02243	869.84406	-664.01813	274.08325	871.58258	-655.25684	64.75224	914.8938	-690.9635	30.21992	952.65369	-499.50266	30.49954	930.1073	-682.65228	637.21881	1150.56018	-665.25439	457.15405	1130.9928	-813.44543	334.39362	1126.18567	-974.43347	195.0686	1076.60693	-1018.94794	206.48903	1017.24164	-925.24652	60.06969	1070.34497	-643.72729	1681.00562	962.96313	NaN	NaN	NaN	NaN	NaN	NaN	NaN	NaN	NaN	NaN	NaN	NaN
